<svg width="198" height="184" viewBox="0 0 198 184" fill="none" xmlns="http://www.w3.org/2000/svg">
<path d="M106.574 19.2792H106.581C137.394 19.1362 168.595 42.3684 182.849 71.5106L182.851 71.5135C190.053 86.1676 194.693 98.5588 195.62 109.898C196.541 121.156 193.809 131.463 186.063 142.001L186.06 142.006C178.448 152.458 162.052 162.116 143.498 169.306C125.583 176.247 105.973 180.765 91.0273 181.5L89.5956 181.559C74.1868 182.072 62.3754 181.928 52.4755 179.062C42.9803 176.314 35.1621 171.031 27.6747 161.145L26.9521 160.175C11.7977 139.306 12.6396 102.978 28.8144 72.8778L28.8163 72.8729C44.8404 42.7841 75.7793 19.2792 106.574 19.2792Z" stroke="#466E38" stroke-width="3"/>
<path d="M169.584 53.0738C184.029 82.4614 181.257 117.405 165.353 139.044C149.595 160.682 120.705 168.87 90.0651 169.893C59.2788 170.917 26.8876 164.776 11.1297 143.283C-4.48233 121.791 -3.46098 84.8007 12.8806 54.3897C29.0762 23.9786 60.4461 0.000673251 91.9619 0.000673251C123.478 -0.145534 155.139 23.54 169.584 53.0738Z" fill="#56BF31"/>
<g clip-path="url(#clip0_83_229)">
<path d="M81.9766 79.4572C82.1567 79.4565 82.3368 79.4559 82.5223 79.4552C83.0166 79.4538 83.5109 79.4543 84.0052 79.4556C84.5405 79.4566 85.0757 79.4551 85.611 79.454C86.6573 79.4521 87.7037 79.4525 88.7501 79.4537C89.601 79.4547 90.4519 79.4548 91.3028 79.4543C91.4242 79.4543 91.5457 79.4542 91.6708 79.4541C91.9175 79.454 92.1642 79.4539 92.4109 79.4537C94.7206 79.4526 97.0303 79.4539 99.3401 79.4561C101.319 79.458 103.298 79.4577 105.277 79.4558C107.579 79.4535 109.881 79.4527 112.183 79.4539C112.428 79.4541 112.674 79.4542 112.92 79.4543C113.041 79.4544 113.162 79.4545 113.286 79.4545C114.135 79.4549 114.985 79.4543 115.834 79.4533C116.87 79.4521 117.906 79.4525 118.942 79.4547C119.469 79.4558 119.997 79.4562 120.525 79.4548C121.099 79.4537 121.672 79.4551 122.246 79.4572C122.411 79.4562 122.575 79.4553 122.745 79.4544C124.552 79.4669 126.109 79.7826 127.477 80.8961C128.756 82.1712 129.063 83.3881 129.032 85.0657C128.994 85.7082 128.894 86.1638 128.543 86.7176C128.482 86.8195 128.42 86.9213 128.357 87.0262C127.572 88.2137 126.494 88.9607 125.039 89.3512C124.15 89.532 123.262 89.5099 122.356 89.5093C122.177 89.5097 121.997 89.5101 121.813 89.5105C121.316 89.5115 120.82 89.5119 120.324 89.512C119.788 89.5122 119.252 89.5133 118.716 89.5142C117.545 89.5161 116.373 89.5169 115.202 89.5175C114.47 89.5179 113.738 89.5185 113.007 89.5191C110.979 89.5208 108.951 89.5223 106.923 89.5227C106.729 89.5228 106.729 89.5228 106.53 89.5228C106.335 89.5229 106.335 89.5229 106.136 89.5229C105.873 89.523 105.609 89.523 105.346 89.5231C105.215 89.5231 105.085 89.5232 104.95 89.5232C102.834 89.5237 100.717 89.5261 98.6012 89.5294C96.4266 89.5327 94.2519 89.5344 92.0773 89.5346C90.8571 89.5347 89.6369 89.5355 88.4167 89.538C87.3774 89.5401 86.3382 89.5408 85.299 89.5397C84.7693 89.5392 84.2396 89.5393 83.7099 89.5412C83.1342 89.543 82.5585 89.5422 81.9828 89.5407C81.8174 89.5418 81.6521 89.543 81.4817 89.5441C79.624 89.5333 78.0038 89.2007 76.6324 88.0117C75.563 86.9489 75.1595 85.7942 75.0703 84.3613C75.175 82.8377 75.8477 81.6663 77.0508 80.6188C78.4387 79.5661 80.2383 79.4474 81.9766 79.4572Z" fill="white"/>
<path d="M82.1686 100.974C82.3458 100.974 82.5229 100.973 82.7054 100.973C83.1951 100.972 83.6848 100.972 84.1744 100.972C84.7033 100.972 85.2323 100.972 85.7612 100.971C86.7966 100.97 87.8321 100.969 88.8676 100.969C89.7095 100.969 90.5515 100.969 91.3934 100.969C93.782 100.967 96.1707 100.967 98.5593 100.967C98.688 100.967 98.8166 100.967 98.9492 100.967C99.0781 100.967 99.2069 100.967 99.3397 100.967C101.428 100.967 103.515 100.966 105.603 100.964C107.749 100.962 109.894 100.961 112.039 100.961C113.243 100.961 114.447 100.96 115.651 100.959C116.676 100.958 117.701 100.957 118.726 100.958C119.248 100.959 119.771 100.959 120.294 100.958C120.861 100.957 121.428 100.957 121.996 100.958C122.16 100.958 122.323 100.957 122.492 100.956C124.355 100.964 126.257 101.269 127.629 102.517C128.884 103.993 129.23 105.39 129 107.23C128.865 107.697 128.674 108.07 128.391 108.477C128.303 108.62 128.215 108.763 128.124 108.91C127.156 110.036 125.983 110.729 124.43 110.972C124.167 110.984 123.904 110.99 123.641 110.991C123.485 110.991 123.328 110.992 123.167 110.992C122.996 110.992 122.825 110.992 122.649 110.992C122.375 110.993 122.375 110.993 122.096 110.994C121.591 110.995 121.085 110.996 120.579 110.996C120.034 110.997 119.488 110.998 118.942 110.999C117.625 111.002 116.307 111.003 114.99 111.005C114.369 111.005 113.748 111.006 113.128 111.007C111.063 111.009 108.999 111.011 106.935 111.012C106.399 111.012 105.864 111.013 105.328 111.013C105.129 111.013 105.129 111.013 104.925 111.013C102.77 111.014 100.614 111.018 98.4592 111.022C96.2451 111.027 94.0311 111.029 91.817 111.03C90.5744 111.03 89.3318 111.031 88.0892 111.035C87.0309 111.038 85.9726 111.039 84.9143 111.038C84.3747 111.037 83.8352 111.037 83.2957 111.04C82.7096 111.043 82.1235 111.041 81.5374 111.04C81.3685 111.041 81.1996 111.043 81.0256 111.044C79.4074 111.032 77.937 110.632 76.7467 109.599C75.7292 108.633 75.1456 107.574 75.0572 106.226C75.1095 104.698 75.5785 103.489 76.7461 102.379C78.3733 101.12 80.113 100.971 82.1686 100.974Z" fill="white"/>
<path d="M80.4109 58.0116C80.6453 58.0108 80.6453 58.0108 80.8845 58.0099C81.1417 58.0101 81.1417 58.0101 81.404 58.0103C81.5864 58.0099 81.7687 58.0095 81.9566 58.0091C82.463 58.0081 82.9693 58.0077 83.4756 58.0076C84.0217 58.0073 84.5677 58.0063 85.1138 58.0054C86.308 58.0035 87.5023 58.0026 88.6965 58.002C89.4424 58.0016 90.1883 58.0011 90.9341 58.0004C92.9998 57.9987 95.0654 57.9973 97.1311 57.9969C97.2633 57.9968 97.3955 57.9968 97.5317 57.9968C97.6642 57.9967 97.7967 57.9967 97.9333 57.9967C98.2018 57.9966 98.4704 57.9965 98.7389 57.9965C98.8721 57.9965 99.0053 57.9964 99.1425 57.9964C101.3 57.9958 103.457 57.9934 105.615 57.9902C107.83 57.9869 110.046 57.9852 112.261 57.985C113.505 57.9849 114.749 57.9841 115.993 57.9816C117.052 57.9794 118.111 57.9787 119.17 57.9799C119.71 57.9804 120.251 57.9803 120.791 57.9784C121.377 57.9763 121.964 57.9774 122.55 57.9788C122.72 57.9777 122.889 57.9766 123.064 57.9755C124.831 57.9856 126.292 58.3862 127.591 59.5076C128.78 60.6945 129.085 61.943 129.052 63.5107C128.988 64.6501 128.461 65.7192 127.599 66.5487C125.921 67.8431 124.166 68.0288 122.055 68.0261C121.878 68.0264 121.701 68.0267 121.519 68.027C121.029 68.0277 120.54 68.0278 120.05 68.0277C119.522 68.0277 118.993 68.0284 118.465 68.0291C117.43 68.0302 116.395 68.0306 115.36 68.0307C114.518 68.0308 113.677 68.031 112.835 68.0315C110.447 68.0327 108.059 68.0333 105.672 68.0332C105.543 68.0332 105.414 68.0332 105.282 68.0332C105.153 68.0332 105.024 68.0332 104.891 68.0332C102.805 68.0331 100.718 68.0345 98.6311 68.0364C96.4866 68.0384 94.3421 68.0394 92.1975 68.0392C90.9943 68.0392 89.791 68.0396 88.5878 68.0411C87.5632 68.0423 86.5386 68.0426 85.514 68.0417C84.9918 68.0412 84.4695 68.0412 83.9473 68.0424C83.3798 68.0435 82.8124 68.0429 82.245 68.0418C82.0817 68.0425 81.9184 68.0432 81.7501 68.044C79.6725 68.0354 77.9675 67.7019 76.4414 66.3446C75.4412 65.3031 75.0433 64.0577 75.0846 62.6809C75.2772 61.2521 75.8426 60.0953 77.002 59.1049C77.9969 58.4192 79.1653 58.0132 80.4109 58.0116Z" fill="white"/>
<path d="M64.2868 79.1294C65.777 80.2674 66.8345 81.7952 67.16 83.6613C67.3713 85.8589 67.056 87.7533 65.6897 89.5425C64.5321 90.933 62.9243 91.9367 61.1023 92.1119C58.8463 92.2527 57.0058 91.8391 55.2354 90.3653C53.9263 89.1392 53.0434 87.5708 52.9412 85.7691C52.8701 83.5611 53.2697 81.8884 54.7085 80.1569C57.2113 77.49 61.2777 77.068 64.2868 79.1294Z" fill="white"/>
<path d="M64.3597 100.736C65.8401 101.862 66.7424 103.336 67.1678 105.149C67.3849 107.334 67.0608 109.262 65.6969 111.033C64.3655 112.599 62.6636 113.488 60.6154 113.707C58.5347 113.738 56.7501 113.203 55.183 111.785C55.0782 111.669 54.9734 111.553 54.8654 111.434C54.7913 111.359 54.7171 111.284 54.6408 111.206C53.4158 109.913 52.9452 108.329 52.9515 106.578C52.9493 106.46 52.9472 106.341 52.9449 106.219C52.9435 104.294 53.7397 102.709 55.0524 101.335C57.6088 98.9011 61.5146 98.7011 64.3597 100.736Z" fill="white"/>
<path d="M64.4508 57.7752C65.8042 58.9449 66.9056 60.3573 67.1629 62.1792C67.2627 63.67 67.2754 65.0835 66.6279 66.4593C66.5795 66.5655 66.531 66.6717 66.4811 66.7811C65.534 68.656 63.899 69.8036 61.9466 70.4719C60.1236 70.9529 58.1596 70.6085 56.5045 69.778C54.6973 68.6904 53.6162 67.1402 53.0479 65.1394C52.6385 63.2802 52.983 61.3483 53.913 59.7215C54.9981 58.0347 56.4993 56.962 58.4585 56.4617C60.577 56.0375 62.7137 56.4519 64.4508 57.7752Z" fill="white"/>
</g>
<defs>
<clipPath id="clip0_83_229">
<rect width="78" height="78" fill="white" transform="translate(51 46)"/>
</clipPath>
</defs>
</svg>
