<svg width="198" height="190" viewBox="0 0 198 190" fill="none" xmlns="http://www.w3.org/2000/svg">
<path d="M83.9629 3.33398C98.7786 0.791977 115.351 0.644396 130.232 4.47266C145.099 8.29722 158.186 16.0597 166.26 29.2783V29.2793C174.314 42.6524 177.46 61.6987 176.234 81.0684C175.01 100.423 169.434 119.864 160.298 133.968C142.116 162.034 109.614 169.24 77.7578 168.441C61.857 168.043 46.3296 165.612 33.4014 160.402C20.4798 155.196 10.2543 147.259 4.7373 135.894C-0.713235 124.665 1.24425 110.654 6.71484 95.8789C12.1694 81.1474 20.9748 66.0235 28.7334 52.7568L28.7354 52.7539C36.5063 39.3857 42.995 28.2717 51.2275 19.8486C59.3933 11.494 69.2989 5.77203 83.9551 3.33594L83.9629 3.33398Z" stroke="#466E38" stroke-width="3"/>
<path d="M187.545 48.5056C204.078 75.9579 200.172 126.046 181.556 154.783C162.941 183.52 129.745 190.744 97.7206 189.941C65.6964 189.139 34.8437 180.148 23.3879 156.549C11.9321 132.95 20.0032 94.7411 35.4946 68.252C50.986 41.6023 73.7675 26.8326 103.709 21.8559C133.65 16.7186 170.882 21.2137 187.545 48.5056Z" fill="#56BF31"/>
<path d="M108.324 73.3413C108.497 73.3374 108.669 73.3334 108.848 73.3293C110.013 73.3269 111.056 73.4477 111.933 74.279C112.804 75.2398 112.943 75.9897 112.923 77.285C112.818 78.2529 112.357 78.8318 111.656 79.4732C110.894 80.0024 110.212 80.1383 109.294 80.1486C109.106 80.1521 108.918 80.1556 108.725 80.1591C108.527 80.1621 108.328 80.1651 108.124 80.1682C101.196 80.332 95.1506 82.781 90.0138 87.4141C89.8997 87.517 89.7857 87.6199 89.6681 87.7259C88.7073 88.6417 87.9083 89.7024 87.1193 90.7657C87.0545 90.8526 86.9896 90.9396 86.9228 91.0291C83.0219 96.3391 81.5091 103.31 82.4157 109.799C83.258 115.224 85.761 119.937 89.4045 123.977C89.5074 124.091 89.6103 124.205 89.7163 124.322C91.2053 125.884 93.0361 127.151 94.8888 128.242C95.0457 128.335 95.0457 128.335 95.2057 128.43C98.0818 130.103 101.207 131.08 104.487 131.594C104.763 131.638 104.763 131.638 105.046 131.682C111.499 132.441 118.436 130.625 123.576 126.62C124.395 125.967 125.189 125.288 125.967 124.586C126.081 124.483 126.195 124.38 126.313 124.274C127.273 123.358 128.073 122.298 128.862 121.234C128.926 121.147 128.991 121.061 129.058 120.971C132.424 116.39 133.746 110.937 133.789 105.339C133.816 104.11 133.887 102.987 134.769 102.059C135.729 101.186 136.481 101.047 137.775 101.067C138.743 101.172 139.322 101.634 139.964 102.334C140.678 103.364 140.646 104.368 140.64 105.581C140.639 105.763 140.638 105.944 140.637 106.131C140.517 115.161 136.9 123.347 130.504 129.682C124.426 135.587 115.999 138.681 107.585 138.647C98.5461 138.487 90.3361 134.718 84.0665 128.265C78.1976 122.096 75.2016 113.575 75.3514 105.127C75.6343 96.1464 79.4904 88.008 85.9703 81.8433C92.0412 76.203 100.131 73.4547 108.324 73.3413Z" fill="white"/>
<path d="M115.455 86.8999C115.724 86.8982 115.724 86.8982 115.998 86.8964C117.91 87.118 119.394 89.1953 120.686 90.4866C120.846 90.6464 121.007 90.8062 121.167 90.966C121.5 91.2979 121.832 91.6302 122.165 91.9626C122.589 92.387 123.015 92.8103 123.44 93.2334C123.77 93.5618 124.1 93.8909 124.429 94.2203C124.586 94.3767 124.742 94.5328 124.9 94.6887C125.119 94.9065 125.337 95.1255 125.555 95.3444C125.679 95.4682 125.803 95.5919 125.931 95.7194C126.715 96.5904 127.102 97.3728 127.186 98.5352C127.058 100.199 125.979 101.16 124.856 102.285C124.711 102.431 124.567 102.577 124.422 102.724C124.031 103.119 123.638 103.514 123.245 103.908C122.999 104.154 122.754 104.401 122.508 104.648C121.738 105.422 120.968 106.196 120.196 106.969C119.308 107.858 118.422 108.749 117.538 109.642C116.853 110.334 116.166 111.024 115.477 111.713C115.067 112.124 114.657 112.535 114.249 112.949C113.865 113.338 113.479 113.724 113.092 114.109C112.884 114.317 112.678 114.527 112.472 114.737C111.651 115.547 110.926 116.032 109.819 116.359C109.717 116.391 109.616 116.422 109.512 116.454C109.229 116.536 108.944 116.608 108.658 116.68C108.553 116.707 108.448 116.734 108.339 116.762C107.997 116.848 107.655 116.934 107.313 117.019C107.072 117.079 106.832 117.14 106.591 117.201C106.089 117.327 105.587 117.452 105.084 117.577C104.443 117.736 103.802 117.898 103.161 118.061C102.665 118.186 102.169 118.31 101.672 118.434C101.436 118.493 101.2 118.552 100.963 118.612C100.633 118.696 100.302 118.778 99.9709 118.86C99.7833 118.906 99.5957 118.953 99.4025 119.002C98.3318 119.195 97.3824 119.166 96.4123 118.645C95.7243 118.066 94.998 117.287 94.8888 116.359C94.8612 115.517 94.9348 114.777 95.1425 113.959C95.1695 113.848 95.1965 113.737 95.2243 113.622C95.3132 113.258 95.4041 112.895 95.4952 112.532C95.5584 112.277 95.6214 112.022 95.6845 111.767C95.8166 111.234 95.9498 110.701 96.0837 110.169C96.2545 109.489 96.422 108.809 96.5886 108.128C96.7179 107.602 96.8493 107.076 96.9812 106.551C97.0437 106.3 97.1056 106.049 97.1668 105.798C97.2529 105.446 97.3417 105.095 97.4312 104.744C97.4677 104.591 97.4677 104.591 97.5049 104.435C97.9016 102.915 98.8972 101.925 99.9876 100.842C100.133 100.696 100.279 100.549 100.425 100.403C100.818 100.008 101.212 99.6139 101.607 99.2205C102.021 98.8075 102.434 98.3933 102.848 97.9793C103.541 97.2848 104.236 96.5913 104.931 95.8983C105.734 95.0982 106.535 94.2964 107.335 93.4937C108.023 92.803 108.713 92.1132 109.403 91.4241C109.815 91.0132 110.226 90.6021 110.637 90.1901C111.022 89.803 111.409 89.4171 111.797 89.032C112.006 88.8237 112.214 88.6143 112.422 88.4049C113.375 87.4618 114.065 86.8908 115.455 86.8999Z" fill="white"/>
<path d="M136.869 75.1024C138.934 76.7772 140.295 78.944 140.592 81.625C140.82 84.2671 140.005 86.6387 138.349 88.6809C137.782 89.3496 137.174 89.9737 136.555 90.5942C136.432 90.7203 136.31 90.8464 136.184 90.9763C135.35 91.814 134.601 92.4726 133.413 92.6747C133.268 92.6731 133.124 92.6715 132.975 92.6699C132.758 92.6723 132.758 92.6723 132.537 92.6747C131.453 92.4904 130.657 91.8905 129.902 91.1234C129.817 91.0391 129.731 90.9548 129.643 90.8679C129.365 90.5917 129.088 90.3134 128.811 90.0348C128.617 89.8404 128.422 89.6461 128.227 89.4519C127.82 89.0456 127.414 88.6383 127.008 88.2302C126.491 87.7091 125.97 87.1907 125.449 86.6731C125.046 86.2727 124.645 85.8709 124.245 85.4686C124.053 85.2769 123.862 85.0857 123.67 84.895C123.401 84.6275 123.134 84.3582 122.867 84.0882C122.788 84.0109 122.71 83.9336 122.629 83.854C121.851 83.0579 121.308 82.1539 121.32 81.0156C121.319 80.8711 121.317 80.7265 121.316 80.5776C121.55 79.2004 122.44 78.3572 123.4 77.4175C123.623 77.1992 123.843 76.9783 124.062 76.7568C127.449 73.3764 132.758 71.9854 136.869 75.1024Z" fill="white"/>
</svg>
