<svg width="199" height="182" viewBox="0 0 199 182" fill="none" xmlns="http://www.w3.org/2000/svg">
<path d="M43.1631 18.0605C56.0628 13.925 70.9973 12.5928 84.5918 14.0996V14.1006C111.526 17.1026 133.349 31.383 152.465 55.4736L152.469 55.4775C162.12 67.5464 171.063 81.9602 176.229 96.6074C181.398 111.265 182.733 125.996 177.425 138.85L177.424 138.853C172.099 151.817 159.945 163.2 145.228 170.793C130.52 178.38 113.466 182.071 98.542 179.869H98.541C83.1712 177.613 65.1135 174.573 48.8691 168.43C32.6209 162.285 18.3771 153.106 10.4062 138.696L10.4043 138.693C2.32451 124.148 0.424767 104.043 2.01562 84.9678C3.60603 65.8989 8.65632 48.1883 14.1641 38.541C19.5563 29.0963 30.2338 22.2056 43.1631 18.0605Z" stroke="#466E38" stroke-width="3"/>
<path d="M169.64 42.5409C189.084 66.8551 205.814 100.779 194.811 127.422C183.808 154.211 144.921 173.867 114.323 169.353C83.575 164.84 45.2904 157.123 28.8612 127.422C12.2813 97.5755 17.5568 45.5984 28.8612 25.7976C40.1657 5.99687 73.1748 -2.44757 100.758 0.609902C128.19 3.66737 150.347 18.2268 169.64 42.5409Z" fill="#56BF31"/>
<g clip-path="url(#clip0_83_215)">
<path d="M74.957 78.4268C75.0652 78.4262 75.1735 78.4257 75.2849 78.4251C75.6476 78.4234 76.0102 78.4228 76.3728 78.4223C76.6328 78.4213 76.8929 78.4203 77.1529 78.4192C78.0071 78.416 78.8612 78.4144 79.7154 78.4129C80.0098 78.4123 80.3043 78.4117 80.5987 78.411C81.9824 78.4081 83.3661 78.406 84.7498 78.4047C86.345 78.4032 87.9401 78.3992 89.5352 78.393C90.7694 78.3884 92.0035 78.3862 93.2377 78.3857C93.9742 78.3853 94.7107 78.384 95.4472 78.3801C96.1408 78.3766 96.8344 78.376 97.528 78.3775C97.7816 78.3776 98.0351 78.3766 98.2887 78.3745C100.181 78.3597 101.773 78.5535 103.275 79.8132C104.504 81.0285 105.158 82.4141 105.175 84.1417C105.174 84.2782 105.173 84.4147 105.172 84.5554C105.174 84.7784 105.174 84.7784 105.175 85.0059C105.177 85.501 105.176 85.9959 105.175 86.4909C105.176 86.8471 105.177 87.2033 105.178 87.5595C105.181 88.5249 105.181 89.4903 105.18 90.4556C105.179 91.3646 105.18 92.2735 105.182 93.1824C105.184 95.0927 105.183 97.003 105.181 98.9133C105.18 100.658 105.181 102.403 105.185 104.148C105.189 105.943 105.19 107.738 105.189 109.532C105.189 110.539 105.189 111.545 105.192 112.551C105.194 113.498 105.194 114.445 105.191 115.391C105.19 115.738 105.191 116.084 105.192 116.431C105.202 118.847 105.117 120.775 103.337 122.581C102.222 123.6 101.108 124.017 99.6097 124.022C99.5003 124.023 99.3908 124.024 99.278 124.024C98.9112 124.026 98.5444 124.026 98.1775 124.027C97.9145 124.028 97.6515 124.029 97.3884 124.03C96.5244 124.033 95.6603 124.035 94.7963 124.036C94.4984 124.037 94.2006 124.038 93.9028 124.038C92.5031 124.041 91.1035 124.043 89.7039 124.045C88.0903 124.046 86.4767 124.05 84.8631 124.056C83.6147 124.061 82.3663 124.063 81.1179 124.064C80.3729 124.064 79.6279 124.065 78.8829 124.069C78.1813 124.073 77.4797 124.073 76.7781 124.072C76.5216 124.072 76.265 124.073 76.0085 124.075C74.2007 124.089 72.5744 123.942 71.1175 122.754C69.8992 121.552 69.2677 120.157 69.2508 118.451C69.2517 118.313 69.2526 118.176 69.2535 118.034C69.2523 117.809 69.2523 117.809 69.2511 117.579C69.2489 117.079 69.25 116.58 69.251 116.08C69.2502 115.721 69.2491 115.361 69.2479 115.002C69.2451 114.028 69.2453 113.054 69.2462 112.079C69.2465 111.47 69.2462 110.861 69.2455 110.252C69.2454 110.151 69.2453 110.05 69.2452 109.946C69.2449 109.74 69.2447 109.534 69.2445 109.328C69.2424 107.401 69.2432 105.474 69.2449 103.547C69.2465 101.786 69.2445 100.025 69.2408 98.2645C69.2371 96.4537 69.2357 94.643 69.2367 92.8323C69.2372 91.8168 69.2368 90.8013 69.2342 89.7858C69.2318 88.8308 69.2325 87.8759 69.2353 86.9209C69.2359 86.571 69.2354 86.2211 69.2338 85.8712C69.2318 85.3924 69.2336 84.9138 69.2362 84.435C69.2341 84.2288 69.2341 84.2288 69.2318 84.0184C69.2508 82.3625 69.9501 81.045 71.0836 79.8679C72.1957 78.8382 73.4656 78.4318 74.957 78.4268ZM74.3572 83.7773C74.1273 84.402 74.1244 84.9536 74.1296 85.6145C74.1289 85.7533 74.1281 85.8922 74.1274 86.0352C74.1256 86.5006 74.127 86.9659 74.1285 87.4313C74.1278 87.7648 74.127 88.0984 74.126 88.432C74.124 89.3382 74.1248 90.2443 74.1262 91.1505C74.1274 92.0982 74.1263 93.046 74.1256 93.9937C74.1247 95.6873 74.1261 97.3809 74.1284 99.0746C74.1305 100.61 74.1301 102.145 74.128 103.681C74.1256 105.464 74.1247 107.247 74.126 109.03C74.1267 109.974 74.1268 110.918 74.1253 111.862C74.124 112.749 74.1249 113.637 74.1275 114.524C74.1282 114.85 74.128 115.176 74.127 115.502C74.1257 115.946 74.1273 116.39 74.1296 116.835C74.1285 116.964 74.1275 117.094 74.1265 117.227C74.1335 117.933 74.1853 118.4 74.6446 118.973C75.0726 119.187 75.4273 119.145 75.9062 119.146C76.0055 119.147 76.1047 119.147 76.207 119.148C76.5411 119.149 76.8752 119.149 77.2094 119.15C77.4483 119.15 77.6873 119.151 77.9262 119.152C78.5765 119.154 79.2268 119.155 79.8771 119.156C80.2833 119.156 80.6894 119.157 81.0955 119.157C82.3657 119.159 83.6358 119.161 84.906 119.161C86.3731 119.162 87.8402 119.165 89.3073 119.169C90.4406 119.172 91.574 119.174 92.7074 119.174C93.3846 119.174 94.0617 119.175 94.7389 119.178C95.376 119.18 96.0131 119.181 96.6502 119.179C96.884 119.179 97.1178 119.18 97.3516 119.182C97.6709 119.183 97.9901 119.183 98.3094 119.181C98.4881 119.181 98.6667 119.181 98.8508 119.182C99.4083 119.115 99.678 119.06 100.086 118.668C100.163 118.184 100.188 117.782 100.181 117.297C100.182 117.156 100.183 117.014 100.184 116.867C100.186 116.39 100.183 115.912 100.18 115.435C100.18 115.093 100.181 114.752 100.182 114.41C100.184 113.481 100.182 112.552 100.178 111.623C100.175 110.652 100.176 109.681 100.177 108.71C100.176 107.08 100.174 105.449 100.169 103.818C100.164 102.14 100.161 100.462 100.162 98.7831C100.163 96.7616 100.162 94.7401 100.159 92.7185C100.158 91.9459 100.157 91.1733 100.158 90.4006C100.158 89.4913 100.156 88.582 100.152 87.6727C100.151 87.3383 100.15 87.0039 100.151 86.6695C100.151 86.2144 100.149 85.7593 100.146 85.3041C100.147 85.1706 100.148 85.0371 100.149 84.8996C100.161 84.2418 100.161 84.2418 99.8817 83.6714C99.4833 83.3643 99.1246 83.418 98.6286 83.4165C98.5265 83.4156 98.4244 83.4146 98.3192 83.4137C97.9764 83.4111 97.6337 83.4119 97.2909 83.4126C97.0454 83.4115 96.7999 83.4102 96.5545 83.4087C95.8872 83.4053 95.2199 83.4049 94.5526 83.4051C93.9961 83.4052 93.4395 83.4039 92.883 83.4026C91.5704 83.3997 90.2578 83.3992 88.9452 83.4002C87.5897 83.4013 86.2343 83.3978 84.8789 83.3921C83.7161 83.3875 82.5534 83.3857 81.3907 83.3863C80.6958 83.3866 80.0009 83.3858 79.306 83.3821C78.6527 83.3787 77.9996 83.3789 77.3463 83.382C77.1063 83.3826 76.8662 83.3818 76.6261 83.3796C76.299 83.3769 75.9722 83.3788 75.645 83.3819C75.3702 83.3817 75.3702 83.3817 75.0898 83.3816C74.6292 83.4362 74.6292 83.4362 74.3572 83.7773Z" fill="white"/>
<path d="M117.015 45.9776C117.125 45.977 117.234 45.9764 117.347 45.9759C117.714 45.9742 118.081 45.9736 118.448 45.973C118.711 45.9721 118.974 45.971 119.237 45.97C120.101 45.9668 120.965 45.9652 121.829 45.9637C122.127 45.9631 122.425 45.9624 122.722 45.9618C124.122 45.9589 125.522 45.9567 126.921 45.9555C128.535 45.954 130.149 45.95 131.762 45.9438C133.011 45.9392 134.259 45.937 135.507 45.9364C136.252 45.9361 136.997 45.9347 137.742 45.9309C138.444 45.9273 139.146 45.9267 139.847 45.9283C140.104 45.9283 140.36 45.9274 140.617 45.9253C142.424 45.9113 144.051 46.0579 145.508 47.2455C146.726 48.4484 147.358 49.8429 147.374 51.5488C147.374 51.6866 147.373 51.8244 147.372 51.9664C147.373 52.1914 147.373 52.1914 147.374 52.421C147.376 52.9206 147.375 53.4201 147.374 53.9197C147.375 54.2792 147.376 54.6386 147.377 54.9981C147.38 55.9723 147.38 56.9464 147.379 57.9206C147.379 58.5296 147.379 59.1386 147.38 59.7475C147.38 59.8488 147.38 59.9501 147.38 60.0544C147.38 60.2602 147.381 60.466 147.381 60.6717C147.383 62.5989 147.382 64.526 147.38 66.4531C147.379 68.2139 147.381 69.9747 147.384 71.7355C147.388 73.5463 147.39 75.357 147.389 77.1677C147.388 78.1832 147.388 79.1987 147.391 80.2142C147.393 81.1692 147.393 82.1241 147.39 83.079C147.389 83.429 147.39 83.7789 147.391 84.1288C147.393 84.6076 147.392 85.0862 147.389 85.565C147.391 85.7712 147.391 85.7712 147.393 85.9816C147.374 87.6374 146.675 88.955 145.542 90.1321C144.431 91.1601 143.162 91.5687 141.673 91.5722C141.565 91.5726 141.458 91.5731 141.347 91.5735C140.986 91.5749 140.625 91.5751 140.264 91.5753C140.005 91.576 139.746 91.5768 139.488 91.5776C138.784 91.5796 138.081 91.5806 137.378 91.5813C136.938 91.5817 136.499 91.5823 136.059 91.583C134.683 91.5851 133.306 91.5866 131.93 91.5872C130.342 91.5878 128.755 91.5905 127.168 91.5949C125.94 91.5982 124.712 91.5998 123.485 91.6C122.752 91.6001 122.019 91.601 121.286 91.6037C120.596 91.6063 119.906 91.6066 119.216 91.6052C118.964 91.6051 118.711 91.6058 118.459 91.6073C116.402 91.6189 114.796 91.4166 113.188 90.0273C111.326 88.1404 111.423 85.9583 111.433 83.4745C111.432 83.1182 111.431 82.762 111.43 82.4057C111.427 81.4416 111.428 80.4776 111.43 79.5134C111.431 78.6053 111.43 77.6971 111.429 76.789C111.428 74.8807 111.43 72.9725 111.433 71.0642C111.436 69.4297 111.435 67.7953 111.432 66.1608C111.429 64.2589 111.428 62.3572 111.43 60.4553C111.431 59.45 111.431 58.4446 111.429 57.4393C111.427 56.4939 111.428 55.5486 111.432 54.6033C111.433 54.2571 111.432 53.9109 111.431 53.5648C111.422 51.1509 111.51 49.2229 113.288 47.4193C114.404 46.4003 115.517 45.9825 117.015 45.9776ZM116.539 51.332C116.462 51.8156 116.438 52.2182 116.445 52.7025C116.444 52.8445 116.443 52.9864 116.442 53.1326C116.439 53.6102 116.442 54.0876 116.445 54.5651C116.445 54.9067 116.444 55.2482 116.443 55.5897C116.441 56.5189 116.443 57.448 116.447 58.3772C116.45 59.348 116.449 60.3189 116.449 61.2897C116.449 62.9203 116.452 64.5509 116.457 66.1815C116.462 67.86 116.464 69.5384 116.463 71.2169C116.462 73.2384 116.463 75.2599 116.466 77.2814C116.467 78.0541 116.468 78.8267 116.468 79.5994C116.467 80.5087 116.47 81.418 116.474 82.3273C116.475 82.6617 116.475 82.9961 116.474 83.3305C116.474 83.7856 116.476 84.2407 116.479 84.6958C116.478 84.8294 116.477 84.9629 116.477 85.1004C116.464 85.7582 116.464 85.7582 116.744 86.3286C117.142 86.6357 117.501 86.582 117.997 86.5835C118.15 86.5849 118.15 86.5849 118.306 86.5863C118.649 86.5889 118.992 86.5881 119.334 86.5874C119.58 86.5885 119.825 86.5898 120.071 86.5913C120.738 86.5947 121.405 86.5951 122.073 86.5948C122.629 86.5948 123.186 86.5961 123.742 86.5974C125.055 86.6003 126.367 86.6008 127.68 86.5997C129.036 86.5987 130.391 86.6022 131.746 86.6079C132.909 86.6125 134.072 86.6143 135.235 86.6137C135.929 86.6134 136.624 86.6142 137.319 86.6179C137.972 86.6213 138.626 86.621 139.279 86.6179C139.519 86.6174 139.759 86.6182 139.999 86.6204C140.326 86.6231 140.653 86.6212 140.98 86.6181C141.255 86.6183 141.255 86.6183 141.535 86.6184C141.996 86.5638 141.996 86.5638 142.268 86.2227C142.498 85.5979 142.501 85.0463 142.496 84.3855C142.497 84.1772 142.497 84.1772 142.498 83.9648C142.5 83.4994 142.498 83.0341 142.497 82.5687C142.497 82.2351 142.498 81.9016 142.499 81.568C142.501 80.6618 142.5 79.7557 142.499 78.8495C142.498 77.9017 142.499 76.954 142.5 76.0063C142.501 74.3127 142.499 72.619 142.497 70.9254C142.495 69.3901 142.495 67.8547 142.497 66.3193C142.5 64.5361 142.501 62.7528 142.499 60.9695C142.498 60.0256 142.498 59.0818 142.5 58.1379C142.501 57.2506 142.5 56.3633 142.498 55.476C142.497 55.1501 142.497 54.8242 142.498 54.4982C142.499 54.0539 142.498 53.6096 142.496 53.1652C142.497 52.9711 142.497 52.9711 142.499 52.773C142.492 52.067 142.44 51.6004 141.981 51.0273C141.553 50.8133 141.198 50.8548 140.719 50.8536C140.62 50.8531 140.52 50.8527 140.418 50.8522C140.084 50.8509 139.75 50.8507 139.416 50.8504C139.177 50.8497 138.938 50.849 138.699 50.8481C138.049 50.8461 137.398 50.8452 136.748 50.8445C136.342 50.844 135.936 50.8434 135.53 50.8427C134.26 50.8406 132.989 50.8392 131.719 50.8386C130.252 50.8379 128.785 50.8352 127.318 50.8308C126.185 50.8275 125.051 50.826 123.918 50.8258C123.241 50.8256 122.563 50.8247 121.886 50.822C121.249 50.8195 120.612 50.8192 119.975 50.8205C119.741 50.8206 119.507 50.82 119.274 50.8184C118.954 50.8165 118.635 50.8174 118.316 50.819C118.137 50.8188 117.959 50.8185 117.774 50.8183C117.217 50.885 116.947 50.94 116.539 51.332Z" fill="white"/>
<path d="M118.659 97.8877C118.919 97.8868 119.179 97.8858 119.439 97.8845C120.142 97.8818 120.846 97.882 121.549 97.8828C122.138 97.8833 122.727 97.8824 123.315 97.8815C124.705 97.8793 126.094 97.8796 127.484 97.8813C128.914 97.883 130.345 97.8809 131.775 97.8768C133.006 97.8734 134.237 97.8724 135.468 97.8733C136.202 97.8738 136.936 97.8735 137.67 97.8708C138.36 97.8685 139.051 97.8691 139.741 97.872C139.993 97.8725 140.246 97.872 140.498 97.8704C142.632 97.8579 144.327 98.1809 145.893 99.7256C146.772 100.687 147.328 101.768 147.335 103.083C147.337 103.298 147.337 103.298 147.338 103.517C147.339 103.673 147.339 103.829 147.34 103.99C147.341 104.155 147.342 104.321 147.343 104.491C147.346 105.039 147.347 105.586 147.349 106.134C147.35 106.321 147.35 106.508 147.351 106.701C147.354 107.591 147.356 108.48 147.357 109.369C147.358 110.291 147.361 111.213 147.367 112.134C147.373 113.125 147.376 114.115 147.376 115.106C147.377 115.482 147.379 115.859 147.382 116.235C147.385 116.764 147.385 117.293 147.384 117.821C147.387 118.052 147.387 118.052 147.39 118.288C147.379 119.86 146.911 121.341 145.789 122.477C144.069 123.933 142.442 124.068 140.288 124.062C140.024 124.062 139.761 124.064 139.498 124.065C138.785 124.067 138.073 124.067 137.361 124.066C136.765 124.066 136.169 124.067 135.573 124.068C134.167 124.07 132.761 124.07 131.354 124.068C129.906 124.066 128.458 124.068 127.01 124.072C125.764 124.076 124.518 124.077 123.272 124.076C122.529 124.075 121.786 124.076 121.043 124.078C120.344 124.081 119.645 124.08 118.946 124.077C118.691 124.077 118.435 124.077 118.179 124.079C116.057 124.091 114.498 123.738 112.931 122.229C112.036 121.263 111.496 120.047 111.489 118.726C111.488 118.585 111.487 118.444 111.486 118.299C111.486 118.146 111.485 117.993 111.485 117.835C111.484 117.672 111.483 117.51 111.482 117.343C111.479 116.805 111.477 116.268 111.476 115.73C111.475 115.546 111.474 115.362 111.474 115.173C111.47 114.199 111.468 113.225 111.467 112.251C111.465 111.247 111.46 110.244 111.454 109.24C111.45 108.466 111.449 107.693 111.448 106.919C111.447 106.549 111.446 106.18 111.443 105.81C111.439 105.291 111.439 104.772 111.44 104.252C111.438 104.101 111.436 103.95 111.434 103.794C111.447 102.115 112 100.674 113.188 99.4727C114.893 98.0216 116.518 97.8812 118.659 97.8877ZM116.709 103.169C116.501 103.493 116.481 103.681 116.479 104.064C116.477 104.192 116.476 104.32 116.474 104.452C116.474 104.592 116.475 104.732 116.475 104.877C116.473 105.099 116.473 105.099 116.471 105.325C116.468 105.815 116.468 106.305 116.468 106.795C116.467 107.135 116.466 107.474 116.464 107.814C116.462 108.527 116.462 109.239 116.463 109.952C116.464 110.866 116.459 111.781 116.453 112.695C116.449 113.397 116.449 114.099 116.449 114.801C116.449 115.138 116.447 115.475 116.445 115.812C116.441 116.283 116.443 116.754 116.445 117.225C116.443 117.365 116.441 117.505 116.439 117.649C116.441 117.778 116.443 117.906 116.445 118.038C116.444 118.149 116.444 118.26 116.444 118.375C116.521 118.702 116.521 118.702 116.863 118.932C117.38 119.16 117.749 119.183 118.314 119.183C118.414 119.184 118.513 119.184 118.616 119.185C118.949 119.187 119.282 119.186 119.615 119.184C119.855 119.185 120.094 119.186 120.333 119.187C120.982 119.189 121.631 119.188 122.28 119.186C122.959 119.185 123.639 119.186 124.318 119.187C125.458 119.188 126.599 119.187 127.739 119.185C129.058 119.182 130.376 119.183 131.695 119.185C132.827 119.188 133.96 119.188 135.092 119.187C135.768 119.186 136.444 119.186 137.121 119.187C137.756 119.189 138.392 119.188 139.027 119.185C139.261 119.184 139.494 119.185 139.727 119.186C140.046 119.187 140.364 119.185 140.682 119.183C140.95 119.183 140.95 119.183 141.222 119.183C141.723 119.119 141.932 119.023 142.285 118.668C142.488 118.06 142.461 117.476 142.462 116.843C142.463 116.703 142.464 116.563 142.464 116.418C142.467 115.955 142.468 115.491 142.469 115.027C142.469 114.705 142.47 114.383 142.471 114.061C142.473 113.386 142.474 112.71 142.474 112.035C142.475 111.169 142.479 110.304 142.483 109.438C142.486 108.773 142.487 108.108 142.487 107.443C142.487 107.123 142.489 106.804 142.491 106.485C142.493 106.039 142.493 105.592 142.492 105.146C142.494 104.948 142.494 104.948 142.496 104.746C142.495 104.624 142.494 104.502 142.494 104.376C142.494 104.271 142.494 104.165 142.494 104.057C142.413 103.599 142.278 103.335 141.981 102.977C141.521 102.862 141.521 102.862 140.98 102.882C140.827 102.88 140.827 102.88 140.671 102.879C140.328 102.877 139.985 102.88 139.642 102.883C139.397 102.882 139.152 102.881 138.906 102.88C138.239 102.878 137.572 102.881 136.904 102.884C136.207 102.887 135.509 102.886 134.811 102.886C133.64 102.886 132.468 102.889 131.297 102.894C129.941 102.9 128.586 102.901 127.23 102.9C125.928 102.899 124.625 102.901 123.322 102.904C122.767 102.905 122.213 102.905 121.658 102.905C121.004 102.905 120.351 102.907 119.698 102.911C119.458 102.912 119.218 102.912 118.978 102.912C118.651 102.911 118.324 102.914 117.997 102.916C117.813 102.917 117.63 102.918 117.441 102.918C117.001 102.942 117.001 102.942 116.709 103.169Z" fill="white"/>
<path d="M76.3374 45.9385C76.6007 45.9376 76.8641 45.9365 77.1275 45.9353C77.8398 45.9326 78.5521 45.9327 79.2644 45.9336C79.8603 45.9341 80.4562 45.9332 81.0521 45.9322C82.4584 45.9301 83.8647 45.9303 85.271 45.9321C86.7192 45.9338 88.1673 45.9317 89.6155 45.9276C90.8615 45.9242 92.1075 45.9232 93.3534 45.9241C94.0965 45.9246 94.8395 45.9242 95.5825 45.9216C96.2814 45.9193 96.9802 45.9199 97.6791 45.9227C97.9347 45.9233 98.1903 45.9228 98.4459 45.9212C100.568 45.909 102.127 46.2616 103.695 47.771C104.589 48.7371 105.129 49.9534 105.136 51.2743C105.137 51.4854 105.137 51.4854 105.139 51.7007C105.14 51.854 105.14 52.0073 105.14 52.1652C105.141 52.3275 105.142 52.4899 105.143 52.6571C105.146 53.1948 105.148 53.7324 105.15 54.27C105.15 54.4539 105.151 54.6378 105.152 54.8273C105.155 55.8012 105.157 56.7751 105.158 57.749C105.16 58.7527 105.165 59.7563 105.171 60.76C105.175 61.5336 105.177 62.3072 105.177 63.0808C105.178 63.4506 105.18 63.8204 105.182 64.1902C105.186 64.7094 105.186 65.2284 105.185 65.7476C105.188 65.9743 105.188 65.9743 105.191 66.2056C105.179 67.8865 104.624 69.3247 103.438 70.5274C101.724 72.008 99.9824 72.119 97.8111 72.1124C97.5524 72.1132 97.2937 72.1143 97.0351 72.1155C96.3363 72.1182 95.6375 72.1181 94.9388 72.1172C94.3539 72.1167 93.769 72.1177 93.1841 72.1186C91.8036 72.1207 90.423 72.1205 89.0425 72.1188C87.6216 72.117 86.2007 72.1192 84.7797 72.1232C83.5565 72.1266 82.3333 72.1276 81.1101 72.1267C80.381 72.1262 79.6518 72.1266 78.9227 72.1292C78.2368 72.1316 77.551 72.1309 76.8651 72.1281C76.6145 72.1275 76.3638 72.128 76.1132 72.1296C73.9851 72.1422 72.294 71.8148 70.7319 70.2744C69.8507 69.3097 69.297 68.2282 69.2902 66.9105C69.2891 66.7657 69.288 66.6209 69.2869 66.4718C69.2863 66.2351 69.2863 66.2351 69.2857 65.9936C69.2847 65.8265 69.2837 65.6595 69.2826 65.4874C69.2796 64.9342 69.2778 64.381 69.2763 63.8278C69.2757 63.6387 69.2751 63.4495 69.2744 63.2546C69.2716 62.3565 69.2694 61.4583 69.2681 60.5601C69.2666 59.5265 69.2626 58.4928 69.2564 57.4592C69.2513 56.5615 69.2495 55.6638 69.2489 54.7661C69.2481 54.3856 69.2464 54.005 69.2435 53.6244C69.2398 53.0906 69.24 52.557 69.241 52.0232C69.2391 51.8672 69.2371 51.7113 69.2351 51.5506C69.2462 50.0066 69.7517 48.6427 70.8361 47.5235C72.5539 46.0661 74.1845 45.932 76.3374 45.9385ZM74.34 51.3321C74.1374 51.9397 74.1639 52.5238 74.1631 53.1574C74.1623 53.2974 74.1616 53.4374 74.1608 53.5817C74.1586 54.0454 74.1575 54.5091 74.1567 54.9728C74.1558 55.2948 74.1549 55.6168 74.154 55.9388C74.1524 56.6143 74.1516 57.2897 74.151 57.9651C74.1502 58.8307 74.1465 59.6963 74.1422 60.5619C74.1394 61.2271 74.1386 61.8923 74.1383 62.5575C74.1379 62.8766 74.1366 63.1958 74.1346 63.5149C74.132 63.9613 74.1323 64.4076 74.1333 64.854C74.1319 64.9858 74.1305 65.1177 74.1291 65.2536C74.1299 65.3758 74.1308 65.4979 74.1316 65.6238C74.1314 65.7292 74.1312 65.8346 74.131 65.9433C74.2124 66.4009 74.3473 66.6647 74.6446 67.0235C75.1044 67.1378 75.1044 67.1378 75.645 67.1181C75.7471 67.1191 75.8492 67.1201 75.9544 67.1211C76.2973 67.1234 76.6399 67.1203 76.9828 67.1172C77.2282 67.1177 77.4737 67.1186 77.7192 67.1197C78.3865 67.1219 79.0537 67.1193 79.721 67.1157C80.4186 67.1127 81.1162 67.1136 81.8138 67.1139C82.9854 67.1139 84.1569 67.1109 85.3285 67.106C86.6839 67.1004 88.0393 67.0991 89.3948 67.1001C90.6975 67.1011 92.0002 67.0995 93.3028 67.0965C93.8578 67.0952 94.4127 67.0948 94.9677 67.0951C95.6209 67.0952 96.2741 67.093 96.9273 67.0891C97.1674 67.088 97.4075 67.0877 97.6475 67.0882C97.9746 67.0888 98.3016 67.0865 98.6286 67.0835C98.8119 67.083 98.9951 67.0824 99.1839 67.0818C99.6241 67.0577 99.6241 67.0577 99.9163 66.8306C100.124 66.5073 100.144 66.3192 100.146 65.9362C100.149 65.744 100.149 65.744 100.151 65.5478C100.151 65.4078 100.15 65.2677 100.15 65.1233C100.151 64.9754 100.153 64.8275 100.154 64.6751C100.158 64.1851 100.158 63.6953 100.157 63.2053C100.159 62.8655 100.16 62.5257 100.161 62.1859C100.163 61.4733 100.163 60.7608 100.162 60.0482C100.161 59.1337 100.166 58.2193 100.172 57.3049C100.176 56.603 100.177 55.9013 100.176 55.1995C100.176 54.8622 100.178 54.525 100.181 54.1877C100.184 53.7168 100.182 53.2461 100.18 52.7752C100.182 52.6351 100.184 52.495 100.186 52.3506C100.184 52.2225 100.182 52.0943 100.181 51.9623C100.181 51.7953 100.181 51.7953 100.181 51.6249C100.104 51.2983 100.104 51.2983 99.7626 51.0678C99.245 50.8401 98.8764 50.8175 98.3115 50.817C98.2117 50.8163 98.112 50.8156 98.0092 50.8148C97.6761 50.813 97.3431 50.8144 97.01 50.8159C96.7707 50.8153 96.5314 50.8144 96.2922 50.8135C95.6432 50.8114 94.9942 50.8122 94.3451 50.8136C93.6659 50.8148 92.9867 50.8137 92.3075 50.813C91.1671 50.8122 90.0267 50.8133 88.8862 50.8154C87.5675 50.8179 86.2488 50.8171 84.93 50.8146C83.7978 50.8125 82.6656 50.8122 81.5334 50.8134C80.8571 50.8141 80.1809 50.8142 79.5046 50.8127C78.869 50.8114 78.2335 50.8123 77.5979 50.815C77.3645 50.8156 77.1311 50.8154 76.8978 50.8144C76.5794 50.8131 76.2612 50.8147 75.9429 50.817C75.6756 50.8172 75.6756 50.8172 75.4029 50.8175C74.9018 50.881 74.6934 50.9767 74.34 51.3321Z" fill="white"/>
</g>
<defs>
<clipPath id="clip0_83_215">
<rect width="78" height="78" fill="white" transform="translate(69.3126 46)"/>
</clipPath>
</defs>
</svg>
